<svg xmlns="http://www.w3.org/2000/svg" xmlns:xlink="http://www.w3.org/1999/xlink" version="1.1" id="Layer_1" x="0px" y="0px" width="222px" height="280px" viewBox="0 0 222 280" enable-background="new 0 0 222 280" xml:space="preserve"><path fill="#E9B14D" d="M95.461 141.736l-4.025 10.241c3.288 1.23 6.723 2.156 10.275 2.736 1.854 0.302 3.739 0.51 5.652 0.617l-1.185 7.044 -1.263 7.506c1.724 0.13 3.459 0.213 5.217 0.213 4.536 0 10.052-0.685 14.347-1.521 -0.932-9.781-5.703-18.44-12.785-24.465 -0.52 0.018-1.038 0.034-1.562 0.034C105.002 144.142 100.073 143.288 95.461 141.736zM90.2 139.606l1.585-4.038c-1.275-0.134-2.568-0.209-3.877-0.209 -5.826 0-11.331 1.361-16.224 3.773 3.093 2.515 10.956 8.758 14.554 10.556L90.2 139.606zM137.577 182.373l-3.733-12.617c0.131-0.045 0.262-0.083 0.391-0.129l-0.236-0.67c-0.108 0.039-0.218 0.071-0.326 0.108 -0.183-0.781-0.318-1.444-0.618-2.891 -2.779 0.979-5.646 1.776-8.575 2.397l0.1 5.766c1.482-0.293 2.955-0.621 4.407-1.001l3.115 10.53c-3.279 0.789-6.627 1.402-10.044 1.796 1.407-3.54 2.283-7.346 2.521-11.325 -4.414 0.813-9.803 1.433-14.446 1.433 -2.076 0-4.127-0.1-6.161-0.269l-3.294-0.347c-6.006-0.768-11.798-2.238-17.28-4.344l-4.05 10.28c4.847 2.179 9.979 3.848 15.354 4.867 -0.427 1.85-0.722 3.828-1.294 5.53 -5.643-1.091-11.035-2.847-16.139-5.122 -1.74-0.775-3.448-1.605-5.114-2.506 -4.494-2.431-8.724-5.283-12.603-8.543 0.463-0.413 0.851-0.766 1.195-1.092 0.285-0.271 0.536-0.523 0.763-0.765 0.694-0.739 1.179-1.415 1.746-2.423 3.397 2.847 7.076 5.366 10.986 7.526l3.929-9.971 0.842-2.139 0.261-0.664 0.98-2.486c1.701 0.817 3.447 1.555 5.221 2.234 4.403 1.684 9.022 2.919 13.798 3.68l1.254-7.461c-11.205-1.736-26.033-9.719-35.009-18.781 -5.992 4.612-10.521 11.029-12.771 18.439 -2.092-2.097-4.094-4.284-5.96-6.589l8.486-7.175c0.465 0.564 0.93 1.129 1.412 1.678l0.534-0.466c-0.479-0.549-0.941-1.109-1.403-1.67l7.676-6.491c0.657 0.774 1.335 1.531 2.027 2.273 2.783-1.919 2.886-2.113 6.167-3.845 -0.955-0.976-1.886-1.974-2.77-3.016 -1.225-1.444-2.375-2.952-3.447-4.52l-5.448 4.606 -7.64 6.461c-0.105-0.15-0.215-0.297-0.319-0.446l-0.585 0.398c0.117 0.172 0.243 0.336 0.36 0.506l-8.473 7.164c-2.612-3.709-4.948-7.625-6.949-11.738 -1.045 1.615-2.6 2.91-4.411 3.87 4.905 9.661 11.499 18.317 19.391 25.596 -0.149 1.342-0.232 2.706-0.232 4.089 0 20.295 16.452 36.745 36.746 36.745 7.75 0 14.926-2.416 20.852-6.514 0.111 0.003 0.222 0.011 0.334 0.014l0.007-0.252c3.954-2.801 7.34-6.352 9.926-10.464 12.969-0.947 25.182-4.65 36.058-10.524 -0.48-1.812-1.609-3.411-2.552-5.07C147.8 178.606 142.797 180.734 137.577 182.373zM14.76 108.865c0 0.004 0 0.009 0.001 0.013C15.827 108.84 16.21 108.816 14.76 108.865zM57.943 86.484l0.013-0.121 -7.273-0.168c4.472-18.137 16.979-33.139 33.536-40.971 0.536 2.421 0.833 4.93 0.853 7.509 -4.598 2.432-8.794 5.514-12.497 9.104l8.577 7.459c0.006-0.012 0.013-0.023 0.019-0.035l0.347 0.304c2.651-4.955 4.177-10.601 4.177-16.613 0-0.174-0.011-0.345-0.014-0.518 3.832-1.967 7.916-3.509 12.203-4.53l-1.01-7.049 -1.246-7.579c0.706-0.15 1.412-0.299 2.125-0.427l-0.125-0.698c-0.71 0.127-1.413 0.276-2.115 0.425L93.355 19.44c3.261-0.654 6.551-1.117 9.848-1.387l0.057-2.804c-0.204-0.989-0.274-1.965-0.026-2.916 -11.881 0.897-24.189 4.295-35.266 9.999 -3.086-1.777-6.468-3.09-10.049-3.873l-0.172-0.269c-0.085 0.055-0.168 0.113-0.253 0.168 -2.298-0.472-4.676-0.724-7.114-0.724 -19.505 0-35.316 15.812-35.316 35.316 0 5.233 1.06 10.147 2.971 14.56 -0.152 0.41-0.311 0.816-0.458 1.228l1.07 0.381c0.018-0.048 0.037-0.096 0.054-0.146 1.959 3.999 4.662 7.525 7.971 10.43 -0.034 0.125-0.072 0.248-0.105 0.373l0.773 0.204c2.787 2.32 5.966 4.221 9.49 5.583 1.721-8.432 4.794-16.036 9.095-23.184l-8.594-5.186 -0.911-0.549 -8.151-4.918c-1.185 2.015-2.285 4.086-3.265 6.225 -0.517-0.009-1.01-0.057-1.499-0.13 -0.384-0.059-0.768-0.129-1.157-0.23 -0.899-0.233-1.837-0.585-2.933-1.083 4.605-10.415 11.518-19.583 20.079-26.872 1.998 1.324 2.697 2.638 4.101 3.963 -4.643 3.892-8.752 8.391-12.246 13.355l8.175 4.933 0.913 0.551 8.601 5.189 4.464 2.693 0.074 0.055c0.002-0.002 0.003-0.005 0.005-0.007l0.327 0.197c-1.104 1.537-2.145 3.12-3.123 4.746 -3.798 6.319-6.562 13.755-8.191 21.169l-5.766-0.919 -0.063 0.31c-0.223 1.091-0.448 2.18-0.623 3.288 -0.124 0.785-0.228 1.576-0.327 2.368 -0.383 3.059-0.592 6.171-0.592 9.332 0 7.273 1.06 14.298 3.007 20.949l-10.655 2.761c-0.208-0.793-0.412-1.589-0.598-2.391l-1.037 0.241c0.188 0.811 0.394 1.615 0.604 2.417l-8.271 2.144c-1.8-5.802-3.012-11.856-3.511-18.104 -1.78 0.063-5.462 0.166-5.675 0.032 0.546 13.045 3.719 22.419 9.29 33.505 1.826-0.428 3.457-1.508 5.143-2.401 -1.252-2.479-2.379-5.031-3.388-7.639l8.063-2.005c0.031 0.094 0.059 0.189 0.091 0.284l1.007-0.341c-0.022-0.066-0.042-0.134-0.064-0.2l10.871-2.704c2.998-0.623 2.998-0.623 5.5-1.513 -3.028-7.768-4.701-16.208-4.701-25.035 0-3.123 0.226-6.193 0.63-9.207L57.344 92l0.492-4.528c8.327-1.791 15.542-6.533 20.551-13.057l-9.68-8.419C63.761 71.898 60.044 78.856 57.943 86.484zM86.924 20.989l2.664 13.107c-0.074 0.022-0.148 0.041-0.222 0.063l0.21 0.678c0.05-0.015 0.103-0.028 0.152-0.043l1.547 7.612 -0.216 0.087c-2.148 0.716-4.241 1.55-6.278 2.487 -1.721-7.455-5.798-14.003-11.409-18.822C77.769 24.026 82.303 22.302 86.924 20.989zM165.087 72.532l7.382-3.876 0.629-0.33 13.062-6.861c-2.03-3.285-4.302-6.407-6.836-9.299 2.08-1.121 3.258-1.376 5.35-2.478 8.009 9.552 13.681 19.788 16.14 32.489 -1.084 0.148-2.003 0.393-3.016 0.663 -0.331 0.088-0.671 0.178-1.031 0.269 -0.532 0.134-1.104 0.271-1.749 0.399 -1.267-6.027-3.326-11.762-6.051-17.104l-13.356 7.014 -0.63 0.331 -7.483 3.931c2.938 7.178 4.564 15.028 4.564 23.251 0 0.657-0.035 1.306-0.057 1.958l7.3 0.257c0.024-0.76 0.06-1.518 0.06-2.284 0-5.296-0.607-10.451-1.739-15.408 0.433-0.11 0.864-0.192 1.299-0.261 0.236-0.038 0.473-0.062 0.708-0.09 1.233-0.143 2.464-0.174 3.696-0.175 1.118 5.137 1.713 10.467 1.713 15.935 0 0.833-0.043 1.657-0.073 2.483 -0.019 0.471-0.018 0.947-0.042 1.417 -0.078 1.428-0.202 2.842-0.357 4.248l-5.677-0.199 -7.323-0.258 -7.129-0.252 -9.291-0.327c-0.077 0.346-0.14 0.699-0.225 1.043 0 0.003-0.001 0.007-0.002 0.01 -0.042 0.173-0.094 0.342-0.138 0.515 5.654 3.622 12.372 5.73 19.585 5.73 9.42 0 18.002-3.58 24.463-9.454 -0.028 0.685-0.053 1.369-0.096 2.05l1.062 0.066c0.059-0.946 0.103-1.896 0.132-2.851l-0.32-0.01c4.804-4.633 8.338-10.57 10.022-17.248 0.02 0.124 0.042 0.246 0.059 0.369l1.125-0.162c-0.136-0.944-0.285-1.885-0.446-2.82l-0.192 0.033c0.363-2.062 0.564-4.18 0.564-6.346 0-11.36-5.211-21.5-13.37-28.171l0.09-0.055c-0.491-0.814-0.994-1.62-1.509-2.419l-0.955 0.615c0.03 0.046 0.059 0.094 0.089 0.141 -5.3-3.679-11.62-5.985-18.454-6.405 -0.014-0.015-0.028-0.031-0.042-0.046l-0.044 0.04c-0.721-0.043-1.445-0.071-2.178-0.071 -6.697 0-12.966 1.818-18.353 4.977 -0.701-0.585-1.415-1.159-2.14-1.717l-0.433 0.563c0.651 0.502 1.291 1.02 1.925 1.544 -2.323 1.428-4.478 3.103-6.418 4.999 0.294 0.235 0.593 0.461 0.881 0.702C156.09 58.812 161.287 65.253 165.087 72.532zM149.437 104.491c0.004 0.005 0.01 0.009 0.016 0.014l0.005-0.191c0.117-0.729 0.197-1.469 0.271-2.21l6.299 0.222 8.888 0.313c0.02-0.569 0.05-1.134 0.05-1.708 0-16.832-7.672-31.903-19.701-41.908 -0.288-0.24-0.596-0.456-0.89-0.689 -4.02 5.851-6.377 12.933-6.377 20.568 0 10.362 4.341 19.705 11.294 26.331 0.044-0.241 0.103-0.479 0.143-0.721C149.436 104.504 149.436 104.498 149.437 104.491zM141.242 47.596l3.853-6.761c0.46 0.26 0.923 0.514 1.376 0.783l0.363-0.61c-0.456-0.271-0.925-0.527-1.389-0.79l7.186-12.609c2.919 1.593 5.737 3.35 8.438 5.26l1.845-2.113 1.921-2.202c-0.023-0.017-0.047-0.033-0.07-0.049 -11.383-8.159-25.433-14.062-39.89-16.191 -0.06 3.016-0.349 3.562-0.53 5.914 7.848 1.123 15.356 3.307 22.357 6.438l-6.469 12.882c-0.322-0.149-0.641-0.306-0.965-0.45l-0.288 0.648c0.315 0.139 0.622 0.292 0.934 0.436l-3.472 6.911 -3.815 6.052c4.232 1.893 8.166 4.33 11.747 7.187 1.347-1.96 2.883-3.78 4.576-5.437C146.522 50.946 143.95 49.166 141.242 47.596zM63.185 16.232l-0.56-0.988c-0.828 0.469-1.648 0.949-2.46 1.439l0.586 0.972C61.555 17.17 62.365 16.696 63.185 16.232zM78.536 9.208l-0.382-1.069c-0.897 0.32-1.79 0.654-2.676 1l0.413 1.057C76.766 9.854 77.648 9.525 78.536 9.208zM68.164 13.599l-0.501-1.019c-0.853 0.42-1.698 0.852-2.538 1.295l0.531 1.003C66.485 14.441 67.321 14.014 68.164 13.599zM73.282 11.256l-0.442-1.045c-0.875 0.371-1.744 0.753-2.605 1.147l0.473 1.032C71.559 12.001 72.417 11.623 73.282 11.256zM16.144 77.222l-1.098-0.289c-0.241 0.92-0.469 1.844-0.685 2.774l1.105 0.256C15.68 79.045 15.905 78.131 16.144 77.222zM94.901 4.91l-0.193-1.118c-0.941 0.162-1.876 0.336-2.806 0.525l0.225 1.113C93.046 5.244 93.972 5.071 94.901 4.91zM100.491 4.112l-0.13-1.128c-0.948 0.108-1.892 0.229-2.833 0.364l0.161 1.124C98.619 4.338 99.553 4.219 100.491 4.112zM106.117 3.632l-0.064-1.134c-0.953 0.054-1.902 0.121-2.849 0.202l0.097 1.131C104.236 3.751 105.174 3.685 106.117 3.632zM111.761 3.471V2.336c-0.955 0-1.907 0.014-2.855 0.041l0.032 1.135C109.876 3.485 110.817 3.471 111.761 3.471zM89.366 6.029l-0.258-1.106c-0.929 0.216-1.852 0.445-2.772 0.686l0.289 1.098C87.534 6.468 88.448 6.242 89.366 6.029zM128.816 3.776c-0.936-0.161-1.877-0.308-2.822-0.442l-0.159 1.124c0.935 0.133 1.864 0.279 2.79 0.438L128.816 3.776zM123.162 2.973c-0.944-0.106-1.891-0.2-2.843-0.28l-0.096 1.131c0.939 0.08 1.878 0.172 2.811 0.277L123.162 2.973zM83.904 7.462l-0.32-1.089c-0.915 0.268-1.825 0.55-2.728 0.844l0.351 1.08C82.101 8.005 83 7.728 83.904 7.462zM139.801 197.232l0.321 1.089c0.915-0.271 1.824-0.553 2.728-0.848l-0.353-1.078C141.604 196.687 140.704 196.965 139.801 197.232zM40.145 172.137c0.664 0.685 1.338 1.355 2.021 2.02l0.791-0.815c-0.675-0.655-1.341-1.32-1.998-1.994L40.145 172.137zM17.731 71.802l-1.08-0.351c-0.294 0.905-0.575 1.815-0.843 2.73l1.089 0.319C17.164 73.597 17.441 72.698 17.731 71.802zM128.808 199.793l0.194 1.119c0.939-0.162 1.876-0.34 2.808-0.528l-0.228-1.111C130.662 199.458 129.737 199.633 128.808 199.793zM123.219 200.597l0.13 1.129c0.948-0.108 1.892-0.23 2.831-0.366l-0.16-1.124C125.09 200.37 124.155 200.489 123.219 200.597zM48.564 179.856c0.737 0.601 1.483 1.192 2.238 1.774l0.693-0.899c-0.747-0.574-1.484-1.161-2.213-1.757L48.564 179.856zM44.244 176.114c0.703 0.645 1.414 1.277 2.134 1.901l0.743-0.857c-0.712-0.617-1.415-1.243-2.109-1.881L44.244 176.114zM117.593 201.082l0.064 1.134c0.953-0.056 1.904-0.123 2.849-0.205l-0.097-1.131C119.474 200.96 118.535 201.028 117.593 201.082zM150.419 193.428l0.443 1.045c0.876-0.373 1.744-0.755 2.605-1.15l-0.474-1.032C152.142 192.681 151.284 193.061 150.419 193.428zM134.416 4.902c-0.927-0.214-1.856-0.415-2.792-0.603l-0.225 1.113c0.926 0.186 1.846 0.384 2.762 0.596L134.416 4.902zM134.34 198.671l0.258 1.105c0.931-0.216 1.854-0.446 2.772-0.688l-0.289-1.098C136.172 198.23 135.259 198.457 134.34 198.671zM145.169 195.48l0.383 1.068c0.898-0.323 1.789-0.655 2.675-1.002l-0.413-1.058C146.938 194.832 146.057 195.162 145.169 195.48zM111.947 201.248l0.002 1.137c0.955-0.003 1.907-0.017 2.855-0.044l-0.033-1.136C113.835 201.233 112.893 201.248 111.947 201.248zM11.831 105.403c0.028 0.954 0.071 1.905 0.125 2.854l1.133-0.067c-0.055-0.937-0.095-1.877-0.124-2.821L11.831 105.403zM13.277 93.897l-1.131-0.096c-0.081 0.947-0.147 1.896-0.201 2.85l1.134 0.063C13.131 95.772 13.198 94.833 13.277 93.897zM13.914 88.288l-1.124-0.161c-0.134 0.941-0.255 1.885-0.362 2.834l1.128 0.127C13.661 90.151 13.78 89.217 13.914 88.288zM12.92 102.36c0-0.944 0.013-1.885 0.04-2.824l-1.135-0.032c-0.027 0.949-0.04 1.901-0.04 2.856v0.186h1.135V102.36zM36.279 167.938c0.625 0.718 1.259 1.428 1.903 2.126l0.835-0.768c-0.637-0.693-1.264-1.395-1.882-2.104L36.279 167.938zM14.87 82.723l-1.113-0.225c-0.188 0.932-0.362 1.868-0.524 2.808l1.119 0.193C14.511 84.568 14.685 83.644 14.87 82.723zM29.297 158.915c0.539 0.785 1.088 1.561 1.648 2.329l0.917-0.67c-0.555-0.758-1.097-1.525-1.63-2.302L29.297 158.915zM32.66 163.523c0.583 0.753 1.176 1.498 1.778 2.232l0.878-0.721c-0.596-0.726-1.182-1.462-1.758-2.206L32.66 163.523zM20.865 144.062c0.397 0.863 0.806 1.72 1.226 2.569l1.018-0.502c-0.415-0.841-0.819-1.689-1.213-2.543L20.865 144.062zM26.204 154.124c0.493 0.813 0.998 1.62 1.513 2.417l0.954-0.615c-0.509-0.788-1.007-1.585-1.495-2.391L26.204 154.124zM23.39 149.167c0.446 0.84 0.904 1.674 1.372 2.497l0.987-0.56c-0.463-0.814-0.915-1.638-1.355-2.47L23.39 149.167zM117.472 2.494c-0.948-0.053-1.899-0.093-2.854-0.12l-0.032 1.135c0.945 0.026 1.885 0.065 2.821 0.118L117.472 2.494zM182.757 171.245l0.815 0.792c0.662-0.684 1.316-1.375 1.961-2.078l-0.837-0.768C184.06 169.886 183.414 170.57 182.757 171.245zM186.577 167.084l0.856 0.742c0.623-0.718 1.237-1.446 1.84-2.184l-0.879-0.721C187.799 165.65 187.192 166.371 186.577 167.084zM178.711 175.183l0.768 0.837c0.701-0.646 1.393-1.3 2.076-1.962l-0.793-0.815C180.088 173.899 179.403 174.545 178.711 175.183zM190.152 162.71l0.899 0.693c0.581-0.754 1.153-1.517 1.714-2.287l-0.92-0.668C191.293 161.21 190.729 161.964 190.152 162.71zM165.335 185.524l0.616 0.953c0.799-0.516 1.592-1.042 2.373-1.58l-0.64-0.937C166.908 184.493 166.127 185.015 165.335 185.524zM210.334 93.806l1.131-0.099c-0.081-0.951-0.177-1.898-0.284-2.841l-1.129 0.129C210.159 91.929 210.253 92.865 210.334 93.806zM194.374 45.882c-0.539-0.785-1.087-1.562-1.646-2.331l-0.918 0.668c0.552 0.76 1.095 1.527 1.627 2.304L194.374 45.882zM174.447 178.883l0.721 0.879c0.737-0.604 1.464-1.217 2.182-1.841l-0.743-0.858C175.896 177.681 175.177 178.287 174.447 178.883zM210.655 99.443l1.136-0.032c-0.027-0.955-0.069-1.906-0.123-2.854l-1.134 0.065C210.589 97.559 210.629 98.5 210.655 99.443zM205.915 132.829l1.078 0.349c0.294-0.904 0.574-1.815 0.842-2.73l-1.09-0.319C206.48 131.035 206.203 131.935 205.915 132.829zM209.718 116.34l1.123 0.16c0.133-0.941 0.254-1.886 0.36-2.833l-1.128-0.127C209.968 114.477 209.849 115.411 209.718 116.34zM207.496 127.41l1.1 0.287c0.241-0.919 0.467-1.845 0.682-2.774l-1.105-0.255C207.959 125.585 207.733 126.5 207.496 127.41zM208.765 121.906l1.114 0.225c0.188-0.932 0.36-1.868 0.521-2.81l-1.119-0.191C209.122 120.06 208.95 120.985 208.765 121.906zM210.698 102.36c0 0.913-0.013 1.823-0.038 2.731l1.136 0.03c0.024-0.917 0.037-1.838 0.037-2.761v-0.094L210.698 102.36zM210.35 110.729l1.132 0.095c0.077-0.947 0.144-1.896 0.196-2.85l-1.134-0.062C210.491 108.854 210.428 109.794 210.35 110.729zM204.017 138.166l1.059 0.412c0.344-0.89 0.678-1.785 0.998-2.686l-1.07-0.381C204.688 136.402 204.357 137.287 204.017 138.166zM196.534 153.383l0.972 0.588c0.493-0.815 0.973-1.64 1.444-2.47l-0.99-0.56C197.497 151.763 197.021 152.576 196.534 153.383zM193.476 158.138l0.937 0.642c0.539-0.787 1.067-1.58 1.583-2.384l-0.956-0.612C194.529 156.576 194.009 157.36 193.476 158.138zM199.317 148.46l1.005 0.529c0.443-0.842 0.878-1.693 1.3-2.55l-1.021-0.501C200.187 146.786 199.757 147.626 199.317 148.46zM201.814 143.38l1.032 0.474c0.396-0.869 0.782-1.743 1.153-2.623l-1.048-0.442C202.586 141.658 202.207 142.523 201.814 143.38zM169.985 182.334l0.668 0.917c0.771-0.56 1.531-1.131 2.283-1.713l-0.695-0.897C171.498 181.214 170.747 181.779 169.985 182.334zM160.514 188.443l0.561 0.987c0.828-0.47 1.647-0.949 2.46-1.442l-0.588-0.97C162.143 187.503 161.332 187.979 160.514 188.443zM175.127 24.924c-0.737-0.603-1.483-1.196-2.237-1.778l-0.692 0.898c0.745 0.577 1.482 1.163 2.212 1.759L175.127 24.924zM170.604 21.432c-0.771-0.562-1.55-1.111-2.336-1.65l-0.642 0.937c0.779 0.532 1.547 1.076 2.31 1.631L170.604 21.432zM183.539 32.648c-0.664-0.683-1.338-1.356-2.021-2.02l-0.79 0.814c0.675 0.656 1.34 1.321 1.995 1.997L183.539 32.648zM187.4 36.854c-0.624-0.719-1.258-1.429-1.9-2.13l-0.837 0.768c0.636 0.693 1.263 1.396 1.881 2.106L187.4 36.854zM155.536 191.079l0.504 1.019c0.852-0.422 1.696-0.854 2.535-1.299l-0.531-1.003C157.216 190.235 156.379 190.663 155.536 191.079zM191.016 41.27c-0.581-0.753-1.174-1.498-1.775-2.233l-0.879 0.719c0.595 0.728 1.182 1.463 1.756 2.208L191.016 41.27zM179.442 28.667c-0.701-0.644-1.411-1.278-2.132-1.902l-0.742 0.858c0.712 0.617 1.413 1.244 2.106 1.88L179.442 28.667zM155.93 12.568c-0.854-0.42-1.716-0.83-2.586-1.227l-0.472 1.032c0.859 0.393 1.71 0.797 2.556 1.213L155.93 12.568zM145.386 8.112c-0.899-0.322-1.805-0.629-2.715-0.924l-0.35 1.08c0.899 0.292 1.794 0.595 2.682 0.913L145.386 8.112zM150.724 10.188c-0.878-0.371-1.764-0.73-2.655-1.076l-0.41 1.058c0.88 0.343 1.755 0.698 2.622 1.065L150.724 10.188zM139.941 6.347c-0.911-0.267-1.829-0.521-2.752-0.763l-0.288 1.099c0.912 0.238 1.821 0.489 2.722 0.753L139.941 6.347zM165.886 18.202c-0.801-0.517-1.61-1.021-2.426-1.515l-0.587 0.972c0.807 0.488 1.607 0.987 2.397 1.497L165.886 18.202zM160.99 15.242c-0.83-0.469-1.665-0.927-2.511-1.373l-0.529 1.003c0.834 0.441 1.661 0.894 2.48 1.357L160.99 15.242zM191.134 140.879c0.415-0.856 0.82-1.721 1.208-2.592l-0.97-0.435c-0.386 0.861-0.784 1.715-1.196 2.562L191.134 140.879zM163.201 32.033c0.76 0.556 1.509 1.123 2.249 1.703l0.657-0.838c-0.75-0.587-1.51-1.162-2.278-1.724L163.201 32.033zM161.035 174.221l0.602 0.879c0.784-0.538 1.559-1.088 2.325-1.65l-0.632-0.858C162.574 173.147 161.81 173.691 161.035 174.221zM185.478 150.808c0.525-0.795 1.035-1.599 1.534-2.411l-0.907-0.557c-0.492 0.804-0.997 1.596-1.515 2.384L185.478 150.808zM156.293 177.258l0.543 0.914c0.817-0.486 1.625-0.985 2.425-1.496l-0.573-0.897C157.897 176.284 157.099 176.776 156.293 177.258zM174.622 40.496c-0.668-0.678-1.347-1.346-2.037-2.001l-0.731 0.771c0.68 0.648 1.35 1.308 2.009 1.978L174.622 40.496zM167.643 35.51c0.723 0.604 1.434 1.219 2.136 1.845l0.708-0.794c-0.709-0.634-1.43-1.256-2.16-1.867L167.643 35.51zM23.828 96.656l1.062 0.068c0.06-0.941 0.135-1.877 0.225-2.811l-1.059-0.103C23.964 94.755 23.888 95.704 23.828 96.656zM23.646 102.364l0 0.253h1.064l0-0.257c0-0.944 0.015-1.884 0.045-2.82l-1.064-0.033C23.662 100.454 23.646 101.405 23.646 102.364zM196.057 124.547l1.027 0.271c0.241-0.918 0.469-1.843 0.681-2.772l-1.038-0.237C196.518 122.727 196.295 123.64 196.057 124.547zM198.853 116.441l-1.05-0.169c-0.15 0.931-0.313 1.856-0.494 2.777l1.045 0.204C198.534 118.32 198.7 117.383 198.853 116.441zM193.508 132.618c-0.329 0.885-0.67 1.763-1.027 2.634l0.987 0.403c0.36-0.883 0.706-1.771 1.037-2.667L193.508 132.618zM194.445 129.948l1.01 0.338c0.302-0.901 0.589-1.809 0.86-2.723l-1.021-0.303C195.026 128.163 194.744 129.06 194.445 129.948zM24.374 90.976l1.056 0.136c0.121-0.934 0.256-1.865 0.406-2.791l-1.05-0.17C24.634 89.087 24.496 90.029 24.374 90.976zM187.541 145.408l0.925 0.527c0.473-0.826 0.93-1.663 1.375-2.506l-0.941-0.496C188.46 143.765 188.007 144.591 187.541 145.408zM198.515 110.679c-0.089 0.938-0.192 1.872-0.311 2.802l1.057 0.134c0.119-0.941 0.224-1.886 0.314-2.837L198.515 110.679zM172.695 166.119l-0.735-0.768c-0.679 0.648-1.369 1.286-2.069 1.914l0.71 0.792C171.31 167.422 172.009 166.776 172.695 166.119zM165.575 170.887l0.657 0.837c0.748-0.588 1.485-1.187 2.214-1.799l-0.685-0.814C167.043 169.714 166.312 170.306 165.575 170.887zM182.998 152.555c-0.543 0.768-1.099 1.526-1.665 2.278l0.848 0.642c0.575-0.761 1.137-1.529 1.686-2.308L182.998 152.555zM176.692 162.048l-0.781-0.721c-0.638 0.691-1.285 1.372-1.943 2.044l0.76 0.745C175.395 163.437 176.05 162.747 176.692 162.048zM179.595 157.056c-0.591 0.731-1.193 1.452-1.808 2.165l0.804 0.695c0.624-0.721 1.234-1.452 1.833-2.192L179.595 157.056zM25.883 82.548c-0.213 0.925-0.411 1.856-0.595 2.792l1.045 0.205c0.181-0.925 0.376-1.844 0.586-2.758L25.883 82.548zM23.699 105.471c0.034 0.955 0.082 1.905 0.146 2.851l1.062-0.071c-0.062-0.935-0.11-1.874-0.143-2.817L23.699 105.471zM25.463 113.862c-0.123-0.929-0.231-1.863-0.324-2.802l-1.059 0.105c0.094 0.949 0.204 1.895 0.328 2.835L25.463 113.862zM124.539 15.111c-0.939-0.136-1.882-0.257-2.831-0.363l-0.118 1.057c0.938 0.105 1.868 0.225 2.797 0.359L124.539 15.111zM26.381 119.424c-0.182-0.919-0.351-1.844-0.504-2.774l-1.05 0.175c0.157 0.941 0.326 1.877 0.511 2.808L26.381 119.424zM104.696 15.547c0.934-0.075 1.874-0.136 2.816-0.182l-0.053-1.063c-0.953 0.046-1.904 0.108-2.849 0.185L104.696 15.547zM33.589 140.715c-0.413-0.84-0.812-1.688-1.199-2.544l-0.97 0.438c0.392 0.867 0.796 1.726 1.215 2.576L33.589 140.715zM31.275 135.592c-0.358-0.868-0.703-1.743-1.034-2.624l-0.997 0.374c0.335 0.893 0.685 1.777 1.047 2.656L31.275 135.592zM115.969 15.36c0.942 0.044 1.88 0.103 2.813 0.178l0.086-1.062c-0.945-0.075-1.896-0.135-2.85-0.179L115.969 15.36zM110.33 15.274c0.938-0.016 1.88-0.017 2.821-0.002l0.017-1.064c-0.951-0.015-1.907-0.014-2.855 0.002L110.33 15.274zM136.888 168.626c0.877-0.351 1.746-0.719 2.605-1.103l-0.291-0.647c-0.852 0.38-1.711 0.744-2.578 1.092L136.888 168.626zM161.895 150.704c-0.641 0.684-1.295 1.352-1.961 2.008l0.497 0.506c0.674-0.663 1.335-1.34 1.981-2.028L161.895 150.704zM165.574 146.461c-0.587 0.731-1.186 1.45-1.798 2.157l0.536 0.465c0.619-0.714 1.224-1.44 1.815-2.179L165.574 146.461zM179.052 121.824l-0.684-0.192c-0.255 0.902-0.528 1.798-0.817 2.685l0.675 0.22C178.518 123.641 178.794 122.736 179.052 121.824zM174.45 132.167c-0.396 0.85-0.81 1.692-1.239 2.524l0.633 0.326c0.432-0.84 0.851-1.691 1.25-2.551L174.45 132.167zM167.287 144.232l0.57 0.421c0.562-0.761 1.107-1.534 1.639-2.317l-0.588-0.397C168.383 142.715 167.843 143.479 167.287 144.232zM46.487 132.502l-0.642 0.304c0.403 0.854 0.823 1.698 1.259 2.533l0.629-0.328C47.302 134.185 46.886 133.348 46.487 132.502zM151.182 44.683l0.41-0.58c-0.771-0.546-1.553-1.078-2.348-1.594l-0.386 0.595C149.643 43.616 150.419 44.143 151.182 44.683zM117.33 32.058c0.934 0.091 1.864 0.2 2.788 0.327l0.097-0.703c-0.934-0.128-1.873-0.239-2.815-0.332L117.33 32.058zM114.572 31.132c-0.939-0.055-1.885-0.091-2.833-0.109l-0.014 0.71c0.939 0.017 1.875 0.053 2.805 0.107L114.572 31.132zM133.982 35.005l-0.232 0.669c0.887 0.311 1.766 0.64 2.636 0.983l0.261-0.66C135.768 35.65 134.881 35.319 133.982 35.005zM128.373 34.03c0.907 0.238 1.808 0.494 2.7 0.767l0.208-0.679c-0.902-0.275-1.812-0.534-2.729-0.774L128.373 34.03zM122.89 32.823c0.925 0.165 1.844 0.347 2.754 0.548l0.152-0.693c-0.921-0.202-1.847-0.387-2.781-0.554L122.89 32.823zM49.08 137.469l-0.615 0.354c0.47 0.819 0.956 1.628 1.457 2.427l0.602-0.377C50.027 139.082 49.546 138.28 49.08 137.469zM142.051 166.316c0.848-0.419 1.685-0.856 2.512-1.309l-0.341-0.621c-0.819 0.446-1.648 0.879-2.486 1.295L142.051 166.316zM103.244 31.365c-0.945 0.094-1.883 0.206-2.816 0.336l0.098 0.703c0.923-0.129 1.853-0.24 2.787-0.332L103.244 31.365zM106.113 31.848c0.93-0.056 1.865-0.093 2.805-0.113l-0.014-0.709c-0.951 0.02-1.895 0.058-2.834 0.114L106.113 31.848zM44.299 127.349l-0.664 0.251c0.333 0.883 0.685 1.758 1.052 2.624l0.653-0.277C44.977 129.089 44.629 128.224 44.299 127.349zM147.019 163.6c0.809-0.483 1.61-0.985 2.4-1.502l-0.392-0.594c-0.78 0.512-1.571 1.008-2.374 1.488L147.019 163.6zM151.757 160.501c0.769-0.549 1.528-1.113 2.273-1.69l-0.434-0.562c-0.738 0.572-1.489 1.129-2.252 1.673L151.757 160.501zM156.237 157.03c0.724-0.606 1.435-1.228 2.134-1.863l-0.477-0.525c-0.693 0.629-1.396 1.244-2.115 1.846L156.237 157.03zM179.77 119.081c0.219-0.917 0.421-1.84 0.605-2.769l-0.695-0.139c-0.184 0.921-0.385 1.835-0.601 2.743L179.77 119.081zM176.243 129.866c0.365-0.872 0.713-1.753 1.044-2.644l-0.665-0.247c-0.328 0.881-0.672 1.754-1.032 2.617L176.243 129.866zM171.041 139.955c0.499-0.802 0.982-1.617 1.449-2.44l-0.616-0.351c-0.463 0.815-0.941 1.622-1.436 2.417L171.041 139.955zM86.908 35.718l-0.235-0.669c-0.893 0.314-1.778 0.646-2.655 0.995l0.261 0.66C85.148 36.357 86.024 36.029 86.908 35.718zM108.97 62.595c0.934-0.103 1.879-0.171 2.808-0.205l-0.03-0.851c-0.949 0.035-1.916 0.104-2.87 0.209L108.97 62.595zM74.212 95.203l0.842 0.123c0.135-0.923 0.306-1.855 0.508-2.77l-0.832-0.184C74.524 93.307 74.35 94.259 74.212 95.203zM136.131 68.841l-0.493 0.693c0.756 0.542 1.508 1.121 2.23 1.72l0.544-0.655C137.675 69.987 136.907 69.396 136.131 68.841zM114.597 62.386c0.932 0.032 1.877 0.1 2.808 0.199l0.092-0.847c-0.952-0.102-1.918-0.17-2.871-0.204L114.597 62.386zM73.914 103.985c0.074 0.956 0.182 1.918 0.323 2.86l0.842-0.126c-0.139-0.922-0.245-1.863-0.316-2.799L73.914 103.985zM125.64 64.402c0.886 0.301 1.772 0.639 2.635 1.004l0.332-0.784c-0.883-0.373-1.787-0.719-2.692-1.026L125.64 64.402zM133.287 67.98l0.443-0.728c-0.82-0.498-1.666-0.972-2.514-1.408l-0.389 0.756C131.657 67.028 132.486 67.492 133.287 67.98zM88.653 130.682c-0.721-0.597-1.428-1.227-2.104-1.875l-0.589 0.615c0.691 0.661 1.415 1.306 2.149 1.915L88.653 130.682zM82.777 124.629l-0.672 0.522c0.587 0.755 1.209 1.496 1.85 2.206l0.632-0.571C83.96 126.093 83.351 125.367 82.777 124.629zM75.458 89.587l0.815 0.245c0.27-0.896 0.575-1.795 0.91-2.67l-0.795-0.303C76.045 87.752 75.733 88.671 75.458 89.587zM88.541 71.293c0.719-0.599 1.468-1.179 2.227-1.723l-0.496-0.691c-0.776 0.556-1.541 1.149-2.275 1.761L88.541 71.293zM120.191 62.989c0.916 0.168 1.842 0.372 2.75 0.607l0.213-0.825c-0.927-0.241-1.872-0.449-2.811-0.62L120.191 62.989zM93.114 68.014c0.797-0.489 1.623-0.953 2.453-1.381l-0.391-0.756c-0.848 0.437-1.692 0.912-2.507 1.411L93.114 68.014zM73.798 100.94v0.167h0.851v-0.167c0-0.933 0.034-1.88 0.101-2.814l-0.85-0.061C73.833 99.02 73.798 99.987 73.798 100.94zM76.32 112.208c-0.274-0.896-0.516-1.812-0.722-2.721l-0.83 0.187c0.21 0.931 0.458 1.867 0.737 2.782L76.32 112.208zM76.446 115.177c0.348 0.896 0.73 1.785 1.137 2.641l0.769-0.364c-0.397-0.838-0.772-1.708-1.112-2.585L76.446 115.177zM106.185 63.003l-0.155-0.837c-0.942 0.174-1.888 0.384-2.809 0.625l0.215 0.823C104.339 63.38 105.263 63.174 106.185 63.003zM81.128 122.347c-0.518-0.775-1.016-1.582-1.478-2.396l-0.74 0.42c0.472 0.833 0.98 1.657 1.51 2.449L81.128 122.347zM77.515 84.207l0.771 0.361c0.397-0.847 0.832-1.69 1.291-2.505l-0.743-0.417C78.365 82.479 77.922 83.341 77.515 84.207zM97.779 64.653l0.334 0.783c0.865-0.369 1.749-0.708 2.625-1.006l-0.274-0.807C99.567 63.929 98.664 64.276 97.779 64.653zM98.125 136.829c0.915 0.265 1.812 0.563 2.697 0.896 0.896 0.337 1.775 0.709 2.637 1.112 2.981 1.397 5.756 3.162 8.235 5.27 20.764-0.696 38.086-15.179 43.09-34.565 -1.97-1.261-3.807-2.705-5.492-4.311 -1.156 6.296-3.786 12.082-7.535 16.974l-15.113-13.206 -4.299-3.759c-1.081 1.576-2.49 2.918-4.16 3.903 -1.431 0.845-3.041 1.435-4.784 1.685 -3.437 0.495-6.753-0.407-9.395-2.26l9.851-9.85 -4.014-4.014 -9.679 9.679c-0.811-1.404-1.382-2.977-1.627-4.678 -0.351-2.441 0.01-4.818 0.905-6.941 0.749-1.775 1.865-3.373 3.29-4.664l-0.985-0.861 0.017-0.019 -8.175-7.11 -7.506-6.56c0.125-0.123 0.238-0.256 0.363-0.377l-0.59-0.612c-0.143 0.137-0.274 0.289-0.415 0.429l-3.921-3.426c-0.913 1.707-1.96 3.326-3.131 4.851l3.308 2.876c-0.467 0.623-0.931 1.251-1.358 1.897l0.71 0.47c0.407-0.614 0.849-1.213 1.293-1.805l7.699 6.696 4.978 4.351c-1.862 3.433-2.697 7.46-2.1 11.615 1.478 10.263 11.027 17.41 21.292 15.933 3.148-0.453 6.001-1.672 8.404-3.434l15.377 13.439c-7.189 7.046-17.022 11.402-27.858 11.402 -4.319 0-8.474-0.7-12.369-1.976 -1.573-0.516-3.095-1.143-4.576-1.842l0.055-0.092c-0.801-0.485-1.592-1.007-2.354-1.548l-0.493 0.693c0.607 0.433 1.245 0.837 1.879 1.237l-0.488 1.241c1.281 0.134 2.534 0.358 3.771 0.621C96.424 136.373 97.28 136.585 98.125 136.829z"/><path fill="#E9B14D" d="M30.815 244.604v18.17h-8.774v-46.502h14.384c3.217 0 5.975 0.326 8.268 0.979 2.294 0.656 4.175 1.571 5.643 2.753 1.469 1.178 2.544 2.587 3.229 4.227 0.685 1.64 1.027 3.446 1.027 5.42 0 1.565-0.235 3.044-0.702 4.438 -0.467 1.395-1.142 2.658-2.022 3.794 -0.88 1.137-1.968 2.134-3.261 2.992 -1.294 0.856-2.767 1.541-4.419 2.057 1.108 0.622 2.065 1.513 2.87 2.669l11.807 17.174h-7.894c-0.762 0-1.409-0.15-1.941-0.451 -0.534-0.299-0.984-0.728-1.354-1.285l-9.915-14.891c-0.37-0.558-0.778-0.953-1.223-1.189 -0.446-0.234-1.104-0.354-1.973-0.354H30.815zM30.815 238.398h5.479c1.651 0 3.093-0.204 4.321-0.611 1.229-0.407 2.239-0.97 3.034-1.689 0.793-0.717 1.385-1.569 1.777-2.555 0.392-0.986 0.587-2.07 0.587-3.249 0-2.359-0.789-4.169-2.364-5.435 -1.577-1.266-3.984-1.897-7.225-1.897h-5.61V238.398zM88.093 262.673h-10.13l-18.453-46.4h9.271c0.815 0 1.5 0.196 2.058 0.588 0.558 0.392 0.941 0.89 1.153 1.492l8.956 24.783c0.513 1.448 0.942 2.865 1.289 4.251 0.345 1.389 0.654 2.774 0.926 4.162 0.271-1.388 0.581-2.773 0.929-4.162 0.346-1.386 0.791-2.803 1.333-4.251l9.18-24.783c0.212-0.603 0.589-1.101 1.131-1.492 0.543-0.392 1.192-0.588 1.944-0.588h8.821L88.093 262.673zM129.156 215.459c1.99 0 3.86 0.202 5.609 0.609s3.347 1.004 4.792 1.788h13.344v4.159c0 0.694-0.182 1.237-0.544 1.628 -0.36 0.393-0.979 0.664-1.854 0.815l-4.16 0.768c0.301 0.784 0.534 1.613 0.701 2.487 0.165 0.875 0.248 1.795 0.248 2.76 0 2.291-0.46 4.364-1.379 6.218 -0.922 1.854-2.187 3.431-3.799 4.727 -1.613 1.296-3.528 2.299-5.743 3.007 -2.216 0.71-4.621 1.063-7.215 1.063 -1.749 0-3.452-0.167-5.11-0.498 -1.446 0.875-2.169 1.854-2.169 2.939 0 0.935 0.43 1.622 1.287 2.059 0.859 0.437 1.99 0.747 3.393 0.927 1.401 0.181 2.992 0.294 4.771 0.338 1.779 0.048 3.604 0.145 5.474 0.296 1.868 0.15 3.692 0.414 5.472 0.791 1.778 0.377 3.369 0.973 4.771 1.785 1.401 0.814 2.532 1.924 3.392 3.326 0.859 1.401 1.29 3.204 1.29 5.404 0 2.049-0.507 4.039-1.516 5.968 -1.011 1.931-2.473 3.649-4.388 5.157 -1.914 1.506-4.259 2.721-7.032 3.641 -2.774 0.919-5.941 1.379-9.498 1.379 -3.526 0-6.588-0.34-9.18-1.019 -2.593-0.677-4.742-1.581-6.444-2.712 -1.704-1.131-2.979-2.436-3.822-3.913 -0.844-1.477-1.267-3.016-1.267-4.611 0-2.172 0.662-3.997 1.988-5.474 1.327-1.476 3.169-2.652 5.519-3.526 -1.146-0.635-2.064-1.478-2.759-2.534 -0.694-1.055-1.039-2.426-1.039-4.115 0-0.693 0.12-1.408 0.362-2.148 0.24-0.737 0.61-1.469 1.106-2.192 0.497-0.725 1.124-1.409 1.878-2.06 0.754-0.646 1.643-1.227 2.668-1.74 -2.353-1.268-4.199-2.955-5.54-5.064 -1.343-2.11-2.012-4.583-2.012-7.417 0-2.291 0.46-4.365 1.379-6.22 0.919-1.854 2.2-3.438 3.843-4.748 1.643-1.312 3.59-2.313 5.835-3.008C124.053 215.806 126.503 215.459 129.156 215.459zM141.413 264.755c0-0.905-0.271-1.644-0.813-2.218 -0.543-0.571-1.281-1.018-2.217-1.333 -0.935-0.316-2.029-0.549-3.279-0.701 -1.252-0.15-2.578-0.264-3.979-0.339 -1.403-0.074-2.85-0.15-4.343-0.227 -1.492-0.075-2.933-0.202-4.318-0.386 -1.267 0.696-2.283 1.517-3.053 2.467 -0.768 0.948-1.153 2.042-1.153 3.279 0 0.812 0.202 1.574 0.61 2.282 0.407 0.708 1.055 1.318 1.944 1.832 0.888 0.512 2.043 0.912 3.46 1.199 1.418 0.285 3.149 0.43 5.2 0.43 2.081 0 3.875-0.158 5.383-0.476 1.508-0.315 2.751-0.754 3.73-1.312 0.979-0.557 1.696-1.22 2.149-1.988C141.188 266.495 141.413 265.658 141.413 264.755zM129.156 238.343c1.388 0 2.594-0.188 3.619-0.565 1.023-0.377 1.876-0.897 2.554-1.561 0.68-0.663 1.192-1.461 1.538-2.397 0.347-0.935 0.521-1.96 0.521-3.074 0-2.292-0.688-4.109-2.06-5.451 -1.372-1.34-3.429-2.012-6.173-2.012 -2.742 0-4.801 0.672-6.172 2.012 -1.372 1.342-2.059 3.159-2.059 5.451 0 1.085 0.174 2.096 0.521 3.029 0.345 0.935 0.859 1.741 1.537 2.42 0.677 0.678 1.538 1.206 2.577 1.583C126.603 238.154 127.8 238.343 129.156 238.343zM159.908 262.673v-46.4h6.829c1.447 0 2.396 0.678 2.849 2.036l0.771 3.662c0.933-0.964 1.921-1.839 2.961-2.623s2.142-1.462 3.303-2.034c1.159-0.574 2.403-1.012 3.729-1.312s2.774-0.452 4.342-0.452c2.533 0 4.778 0.43 6.739 1.289 1.959 0.857 3.594 2.066 4.906 3.618 1.312 1.553 2.307 3.406 2.985 5.563 0.678 2.154 1.019 4.528 1.019 7.122v29.531h-11.173v-29.531c0-2.834-0.654-5.027-1.967-6.582 -1.311-1.552-3.278-2.328-5.902-2.328 -1.929 0-3.737 0.438-5.427 1.312 -1.688 0.874-3.286 2.064-4.793 3.571v33.558H159.908z"/></svg>